<?xml version="1.0" encoding="UTF-8" standalone="no"?>
<!DOCTYPE svg PUBLIC "-//W3C//DTD SVG 1.1//EN" "http://www.w3.org/Graphics/SVG/1.1/DTD/svg11.dtd">
<svg width="100%" height="100%" viewBox="0 0 592 137" version="1.1" xmlns="http://www.w3.org/2000/svg" xmlns:xlink="http://www.w3.org/1999/xlink" xml:space="preserve" xmlns:serif="http://www.serif.com/" style="fill-rule:evenodd;clip-rule:evenodd;stroke-linecap:round;stroke-miterlimit:1.5;">
    <g transform="matrix(1,0,0,1,-1070,-1367)">
        <g transform="matrix(1,0,0,1,376,624.084)">
            <g transform="matrix(1.03151,0,0,1.03151,-430.309,176.445)">
                <g transform="matrix(67.8433,0,0,72,1116.09,606.382)">
                    <path d="M0.03,-0.02L0.319,-0.02C0.436,-0.02 0.523,-0.037 0.585,-0.073C0.687,-0.13 0.739,-0.244 0.739,-0.406C0.739,-0.555 0.692,-0.653 0.593,-0.713C0.534,-0.75 0.445,-0.768 0.331,-0.768L0.03,-0.768L0.03,-0.742C0.11,-0.741 0.12,-0.73 0.12,-0.638L0.12,-0.15C0.12,-0.058 0.111,-0.048 0.03,-0.046L0.03,-0.02ZM0.25,-0.049L0.25,-0.739L0.31,-0.739C0.416,-0.739 0.492,-0.708 0.535,-0.646C0.578,-0.584 0.599,-0.501 0.599,-0.389C0.599,-0.266 0.572,-0.172 0.52,-0.118C0.479,-0.074 0.407,-0.049 0.321,-0.049L0.25,-0.049Z" style="fill:rgb(96,87,87);fill-rule:nonzero;"/>
                </g>
                <g transform="matrix(67.8433,0,0,72,1170.17,606.382)">
                    <path d="M0.043,-0.277C0.043,-0.2 0.068,-0.129 0.112,-0.08C0.154,-0.033 0.225,-0.004 0.3,-0.004C0.379,-0.004 0.452,-0.034 0.498,-0.085C0.539,-0.131 0.564,-0.205 0.564,-0.283C0.564,-0.449 0.462,-0.557 0.305,-0.557C0.229,-0.557 0.161,-0.531 0.118,-0.486C0.071,-0.436 0.043,-0.359 0.043,-0.277ZM0.178,-0.282C0.178,-0.369 0.188,-0.433 0.21,-0.476C0.227,-0.513 0.262,-0.534 0.303,-0.534C0.39,-0.534 0.43,-0.454 0.43,-0.279C0.43,-0.105 0.391,-0.027 0.304,-0.027C0.218,-0.027 0.178,-0.109 0.178,-0.282Z" style="fill:rgb(96,87,87);fill-rule:nonzero;"/>
                </g>
                <g transform="matrix(67.8433,0,0,72,1211.28,606.382)">
                    <path d="M0.494,-0.161C0.46,-0.087 0.401,-0.043 0.332,-0.043C0.281,-0.043 0.239,-0.071 0.213,-0.122C0.19,-0.168 0.178,-0.227 0.178,-0.292C0.178,-0.354 0.189,-0.425 0.206,-0.469C0.222,-0.508 0.257,-0.533 0.298,-0.533C0.347,-0.533 0.376,-0.499 0.38,-0.439C0.382,-0.403 0.382,-0.403 0.388,-0.395C0.397,-0.384 0.416,-0.377 0.439,-0.377C0.48,-0.377 0.507,-0.396 0.507,-0.426C0.507,-0.497 0.412,-0.557 0.301,-0.557C0.229,-0.557 0.167,-0.533 0.123,-0.49C0.073,-0.438 0.044,-0.36 0.044,-0.274C0.044,-0.113 0.147,-0.004 0.301,-0.004C0.401,-0.004 0.475,-0.051 0.52,-0.144L0.494,-0.161Z" style="fill:rgb(96,87,87);fill-rule:nonzero;"/>
                </g>
                <g transform="matrix(67.8433,0,0,72,1248.19,606.382)">
                    <path d="M0.603,-0.02L0.603,-0.043C0.548,-0.044 0.538,-0.06 0.538,-0.147L0.538,-0.355C0.538,-0.418 0.538,-0.418 0.544,-0.555L0.343,-0.542L0.343,-0.518C0.385,-0.517 0.391,-0.515 0.401,-0.507C0.412,-0.496 0.416,-0.476 0.416,-0.421L0.416,-0.263C0.416,-0.209 0.411,-0.177 0.397,-0.144C0.373,-0.09 0.335,-0.06 0.289,-0.06C0.254,-0.06 0.23,-0.076 0.219,-0.109C0.209,-0.138 0.206,-0.163 0.206,-0.231L0.206,-0.25L0.207,-0.356C0.208,-0.445 0.21,-0.483 0.215,-0.555L0.014,-0.542L0.014,-0.518C0.059,-0.517 0.067,-0.514 0.076,-0.502C0.084,-0.491 0.087,-0.469 0.087,-0.429C0.087,-0.426 0.086,-0.424 0.086,-0.421L0.084,-0.219L0.084,-0.205C0.084,-0.144 0.09,-0.109 0.103,-0.081C0.126,-0.033 0.173,-0.006 0.232,-0.006C0.306,-0.006 0.374,-0.047 0.416,-0.116C0.416,-0.075 0.418,-0.037 0.421,-0.011L0.603,-0.02Z" style="fill:rgb(96,87,87);fill-rule:nonzero;"/>
                </g>
                <g transform="matrix(67.8433,0,0,72,1290.72,606.382)">
                    <path d="M0.225,-0.555L0.03,-0.542L0.03,-0.518C0.096,-0.517 0.104,-0.506 0.104,-0.422L0.104,-0.144C0.104,-0.054 0.097,-0.045 0.028,-0.044L0.028,-0.02L0.299,-0.02L0.299,-0.044C0.233,-0.045 0.226,-0.054 0.226,-0.144L0.226,-0.347C0.226,-0.437 0.281,-0.511 0.347,-0.511C0.402,-0.511 0.428,-0.464 0.428,-0.364L0.428,-0.144C0.428,-0.055 0.421,-0.045 0.355,-0.044L0.355,-0.02L0.623,-0.02L0.623,-0.044C0.556,-0.045 0.549,-0.055 0.549,-0.144L0.549,-0.355C0.549,-0.392 0.559,-0.424 0.58,-0.456C0.605,-0.494 0.633,-0.511 0.669,-0.511C0.728,-0.511 0.752,-0.469 0.752,-0.363L0.752,-0.144C0.752,-0.055 0.745,-0.045 0.679,-0.044L0.679,-0.02L0.95,-0.02L0.95,-0.044C0.881,-0.045 0.874,-0.055 0.874,-0.144L0.874,-0.364C0.874,-0.432 0.866,-0.469 0.844,-0.499C0.817,-0.537 0.772,-0.557 0.714,-0.557C0.639,-0.557 0.586,-0.525 0.542,-0.452C0.524,-0.523 0.477,-0.557 0.4,-0.557C0.325,-0.557 0.266,-0.522 0.226,-0.456L0.225,-0.555Z" style="fill:rgb(96,87,87);fill-rule:nonzero;"/>
                </g>
                <g transform="matrix(67.8433,0,0,72,1356.6,606.382)">
                    <path d="M0.52,-0.302C0.518,-0.365 0.513,-0.395 0.502,-0.425C0.469,-0.511 0.397,-0.557 0.295,-0.557C0.143,-0.557 0.044,-0.447 0.044,-0.279C0.044,-0.112 0.146,-0.005 0.305,-0.005C0.408,-0.005 0.475,-0.047 0.525,-0.142L0.5,-0.158C0.463,-0.085 0.404,-0.044 0.335,-0.044C0.274,-0.044 0.228,-0.077 0.199,-0.143C0.181,-0.185 0.174,-0.228 0.173,-0.302L0.52,-0.302ZM0.174,-0.331C0.178,-0.383 0.184,-0.415 0.195,-0.446C0.216,-0.504 0.249,-0.534 0.292,-0.534C0.331,-0.534 0.359,-0.509 0.378,-0.456C0.389,-0.425 0.393,-0.394 0.395,-0.331L0.174,-0.331Z" style="fill:rgb(96,87,87);fill-rule:nonzero;"/>
                </g>
                <g transform="matrix(67.8433,0,0,72,1394.59,606.382)">
                    <path d="M0.225,-0.555L0.03,-0.542L0.03,-0.518C0.096,-0.517 0.104,-0.506 0.104,-0.421L0.104,-0.144C0.104,-0.055 0.097,-0.045 0.028,-0.044L0.028,-0.02L0.301,-0.02L0.301,-0.044C0.233,-0.045 0.226,-0.054 0.226,-0.144L0.226,-0.344C0.226,-0.377 0.237,-0.418 0.253,-0.447C0.278,-0.49 0.314,-0.513 0.356,-0.513C0.418,-0.513 0.444,-0.468 0.444,-0.36L0.444,-0.144C0.444,-0.056 0.436,-0.045 0.369,-0.044L0.369,-0.02L0.641,-0.02L0.641,-0.044C0.572,-0.045 0.565,-0.055 0.565,-0.144L0.565,-0.366C0.565,-0.426 0.558,-0.459 0.54,-0.489C0.514,-0.535 0.469,-0.557 0.404,-0.557C0.324,-0.557 0.269,-0.526 0.226,-0.456L0.225,-0.555Z" style="fill:rgb(96,87,87);fill-rule:nonzero;"/>
                </g>
                <g transform="matrix(67.8433,0,0,72,1439.57,606.382)">
                    <path d="M0.219,-0.51L0.34,-0.51L0.34,-0.542L0.219,-0.542C0.219,-0.633 0.22,-0.664 0.222,-0.705L0.172,-0.7C0.163,-0.65 0.153,-0.621 0.135,-0.593C0.112,-0.557 0.084,-0.542 0.04,-0.54L0.04,-0.51L0.097,-0.51L0.097,-0.198C0.097,-0.109 0.1,-0.085 0.112,-0.06C0.131,-0.025 0.171,-0.005 0.225,-0.005C0.277,-0.005 0.321,-0.021 0.362,-0.055L0.348,-0.08C0.323,-0.06 0.299,-0.049 0.278,-0.049C0.257,-0.049 0.237,-0.064 0.229,-0.086C0.222,-0.106 0.219,-0.132 0.219,-0.176L0.219,-0.51Z" style="fill:rgb(96,87,87);fill-rule:nonzero;"/>
                </g>
                <g transform="matrix(67.8433,0,0,72,1464.54,606.382)">
                    <path d="M0.547,-0.047C0.483,-0.048 0.479,-0.054 0.479,-0.164C0.479,-0.171 0.479,-0.19 0.48,-0.218L0.482,-0.392C0.482,-0.454 0.47,-0.49 0.443,-0.516C0.413,-0.544 0.364,-0.557 0.295,-0.557C0.227,-0.557 0.173,-0.545 0.131,-0.519C0.092,-0.495 0.069,-0.461 0.069,-0.426C0.069,-0.396 0.093,-0.38 0.139,-0.38C0.181,-0.38 0.198,-0.393 0.2,-0.429C0.203,-0.467 0.206,-0.483 0.216,-0.5C0.23,-0.524 0.251,-0.534 0.283,-0.534C0.343,-0.534 0.361,-0.503 0.361,-0.397L0.361,-0.332C0.299,-0.329 0.246,-0.322 0.197,-0.313C0.09,-0.292 0.037,-0.239 0.037,-0.153C0.037,-0.063 0.096,-0.006 0.191,-0.006C0.256,-0.006 0.31,-0.031 0.362,-0.087C0.367,-0.026 0.377,-0.011 0.409,-0.011C0.435,-0.011 0.488,-0.016 0.547,-0.023L0.547,-0.047ZM0.361,-0.232C0.361,-0.175 0.356,-0.142 0.343,-0.116C0.324,-0.075 0.286,-0.05 0.246,-0.05C0.197,-0.05 0.165,-0.097 0.165,-0.168C0.165,-0.261 0.216,-0.298 0.361,-0.309L0.361,-0.232Z" style="fill:rgb(96,87,87);fill-rule:nonzero;"/>
                </g>
                <g transform="matrix(67.8433,0,0,72,1503.55,606.382)">
                    <path d="M0.219,-0.51L0.34,-0.51L0.34,-0.542L0.219,-0.542C0.219,-0.633 0.22,-0.664 0.222,-0.705L0.172,-0.7C0.163,-0.65 0.153,-0.621 0.135,-0.593C0.112,-0.557 0.084,-0.542 0.04,-0.54L0.04,-0.51L0.097,-0.51L0.097,-0.198C0.097,-0.109 0.1,-0.085 0.112,-0.06C0.131,-0.025 0.171,-0.005 0.225,-0.005C0.277,-0.005 0.321,-0.021 0.362,-0.055L0.348,-0.08C0.323,-0.06 0.299,-0.049 0.278,-0.049C0.257,-0.049 0.237,-0.064 0.229,-0.086C0.222,-0.106 0.219,-0.132 0.219,-0.176L0.219,-0.51Z" style="fill:rgb(96,87,87);fill-rule:nonzero;"/>
                </g>
                <g transform="matrix(67.8433,0,0,72,1528.51,606.382)">
                    <path d="M0.031,-0.542L0.031,-0.518C0.101,-0.517 0.106,-0.51 0.106,-0.421L0.106,-0.144C0.106,-0.055 0.099,-0.045 0.028,-0.044L0.028,-0.02L0.306,-0.02L0.306,-0.044C0.235,-0.045 0.228,-0.055 0.228,-0.144L0.228,-0.361C0.228,-0.425 0.23,-0.495 0.234,-0.555L0.031,-0.542ZM0.096,-0.713C0.096,-0.673 0.128,-0.641 0.168,-0.641C0.208,-0.641 0.24,-0.673 0.24,-0.713C0.24,-0.753 0.208,-0.785 0.168,-0.785C0.128,-0.785 0.096,-0.753 0.096,-0.713Z" style="fill:rgb(96,87,87);fill-rule:nonzero;"/>
                </g>
                <g transform="matrix(67.8433,0,0,72,1551.11,606.382)">
                    <path d="M0.043,-0.277C0.043,-0.2 0.068,-0.129 0.112,-0.08C0.154,-0.033 0.225,-0.004 0.3,-0.004C0.379,-0.004 0.452,-0.034 0.498,-0.085C0.539,-0.131 0.564,-0.205 0.564,-0.283C0.564,-0.449 0.462,-0.557 0.305,-0.557C0.229,-0.557 0.161,-0.531 0.118,-0.486C0.071,-0.436 0.043,-0.359 0.043,-0.277ZM0.178,-0.282C0.178,-0.369 0.188,-0.433 0.21,-0.476C0.227,-0.513 0.262,-0.534 0.303,-0.534C0.39,-0.534 0.43,-0.454 0.43,-0.279C0.43,-0.105 0.391,-0.027 0.304,-0.027C0.218,-0.027 0.178,-0.109 0.178,-0.282Z" style="fill:rgb(96,87,87);fill-rule:nonzero;"/>
                </g>
                <g transform="matrix(67.8433,0,0,72,1592.22,606.382)">
                    <path d="M0.225,-0.555L0.03,-0.542L0.03,-0.518C0.096,-0.517 0.104,-0.506 0.104,-0.421L0.104,-0.144C0.104,-0.055 0.097,-0.045 0.028,-0.044L0.028,-0.02L0.301,-0.02L0.301,-0.044C0.233,-0.045 0.226,-0.054 0.226,-0.144L0.226,-0.344C0.226,-0.377 0.237,-0.418 0.253,-0.447C0.278,-0.49 0.314,-0.513 0.356,-0.513C0.418,-0.513 0.444,-0.468 0.444,-0.36L0.444,-0.144C0.444,-0.056 0.436,-0.045 0.369,-0.044L0.369,-0.02L0.641,-0.02L0.641,-0.044C0.572,-0.045 0.565,-0.055 0.565,-0.144L0.565,-0.366C0.565,-0.426 0.558,-0.459 0.54,-0.489C0.514,-0.535 0.469,-0.557 0.404,-0.557C0.324,-0.557 0.269,-0.526 0.226,-0.456L0.225,-0.555Z" style="fill:rgb(96,87,87);fill-rule:nonzero;"/>
                </g>
            </g>
            <g>
                <g transform="matrix(0.954218,0,0,0.933415,45.5514,48.0099)">
                    <path d="M687.569,802.544C687.569,817.54 699.479,829.715 714.148,829.715L958.322,829.715" style="fill-opacity:0;stroke:rgb(152,152,152);stroke-width:8.48px;"/>
                </g>
                <g transform="matrix(-0.954218,0,0,0.933415,1934.45,48.0099)">
                    <path d="M687.569,802.544C687.569,817.54 699.479,829.715 714.148,829.715L958.322,829.715" style="fill-opacity:0;stroke:rgb(152,152,152);stroke-width:8.48px;"/>
                </g>
                <g transform="matrix(1,0,0,1,-3.89314,8.39447)">
                    <path d="M993.893,801.267L1011.67,813.7L993.893,855.769L976.117,813.7L993.893,801.267Z" style="fill-opacity:0;"/>
                    <path d="M993.893,801.267L1011.67,813.7L993.893,855.769L976.117,813.7L993.893,801.267ZM985.016,816.262L993.893,837.271L1002.77,816.262L993.893,810.053L985.016,816.262Z" style="fill:rgb(152,152,152);"/>
                </g>
                <g transform="matrix(1.22784,0,0,1,-256.852,0)">
                    <path d="M1030.15,842.158L1101.01,842.158" style="fill:none;stroke:rgb(152,152,152);stroke-width:5.36px;stroke-linecap:square;stroke-miterlimit:0;"/>
                </g>
                <g transform="matrix(1,0,0,1,-149.01,0)">
                    <path d="M1034,842.158L1121.01,842.158" style="fill:none;stroke:rgb(152,152,152);stroke-width:6px;stroke-linecap:square;stroke-miterlimit:0;"/>
                </g>
                <g transform="matrix(1,0,0,1,-4.29666,-2.35681)">
                    <circle cx="994.314" cy="876.52" r="5.55" style="fill-opacity:0;"/>
                    <path d="M994.314,870.97C997.378,870.97 999.864,873.457 999.864,876.52C999.864,879.583 997.378,882.07 994.314,882.07C991.251,882.07 988.764,879.583 988.764,876.52C988.764,873.457 991.251,870.97 994.314,870.97ZM994.314,878.17C993.866,878.175 993.481,877.942 993.183,877.651C992.895,877.37 992.772,876.955 992.767,876.52C992.762,876.099 992.983,875.74 993.255,875.461C993.519,875.191 993.908,875.079 994.314,875.074C994.707,875.07 995.041,875.279 995.301,875.533C995.553,875.778 995.654,876.142 995.658,876.52C995.662,876.884 995.465,877.193 995.229,877.435C995.002,877.667 994.665,877.758 994.314,877.762L994.314,878.17Z" style="fill:rgb(152,152,152);"/>
                </g>
            </g>
        </g>
    </g>
</svg>
