<?xml version="1.0" encoding="UTF-8" standalone="no"?>
<!DOCTYPE svg PUBLIC "-//W3C//DTD SVG 1.1//EN" "http://www.w3.org/Graphics/SVG/1.1/DTD/svg11.dtd">
<svg width="100%" height="100%" viewBox="0 0 593 127" version="1.1" xmlns="http://www.w3.org/2000/svg" xmlns:xlink="http://www.w3.org/1999/xlink" xml:space="preserve" xmlns:serif="http://www.serif.com/" style="fill-rule:evenodd;clip-rule:evenodd;stroke-linecap:round;stroke-miterlimit:1.5;">
    <g transform="matrix(1,0,0,1,-330,-1377)">
        <g transform="matrix(1,0,0,1,-340.433,307.892)">
            <g transform="matrix(1.03151,0,0,1.03151,-453.423,492.636)">
                <g transform="matrix(56.8733,0,0,60.3579,1121.51,606.382)">
                    <path d="M0.222,-0.273L0.485,-0.273L0.523,-0.163C0.532,-0.138 0.537,-0.113 0.538,-0.097L0.538,-0.094C0.538,-0.061 0.515,-0.048 0.452,-0.046L0.452,-0.02L0.778,-0.02L0.778,-0.046C0.745,-0.05 0.736,-0.052 0.725,-0.057C0.702,-0.069 0.683,-0.101 0.66,-0.163L0.442,-0.776L0.368,-0.768L0.155,-0.204C0.11,-0.086 0.074,-0.047 0.009,-0.046L0.009,-0.02L0.266,-0.02L0.266,-0.046C0.2,-0.048 0.172,-0.066 0.172,-0.105C0.172,-0.128 0.179,-0.159 0.194,-0.197L0.222,-0.273ZM0.472,-0.312L0.236,-0.312L0.358,-0.637L0.472,-0.312Z" style="fill:rgb(96,87,87);fill-rule:nonzero;"/>
                </g>
                <g transform="matrix(56.8733,0,0,60.3579,1166.27,606.382)">
                    <path d="M0.21,-0.555L0.015,-0.542L0.015,-0.518C0.082,-0.517 0.091,-0.506 0.091,-0.421L0.091,0.079C0.091,0.168 0.085,0.177 0.015,0.179L0.015,0.203L0.294,0.203L0.294,0.179C0.218,0.176 0.212,0.168 0.212,0.079L0.212,-0.06C0.258,-0.02 0.294,-0.006 0.351,-0.006C0.419,-0.006 0.482,-0.033 0.52,-0.08C0.559,-0.128 0.582,-0.206 0.582,-0.295C0.582,-0.462 0.506,-0.557 0.372,-0.557C0.304,-0.557 0.256,-0.534 0.21,-0.478L0.21,-0.555ZM0.208,-0.268C0.208,-0.428 0.258,-0.525 0.34,-0.525C0.411,-0.525 0.449,-0.441 0.449,-0.281C0.449,-0.116 0.409,-0.034 0.328,-0.034C0.29,-0.034 0.254,-0.06 0.236,-0.098C0.217,-0.14 0.208,-0.194 0.208,-0.268Z" style="fill:rgb(96,87,87);fill-rule:nonzero;"/>
                </g>
                <g transform="matrix(56.8733,0,0,60.3579,1202.27,606.382)">
                    <path d="M0.21,-0.555L0.015,-0.542L0.015,-0.518C0.082,-0.517 0.091,-0.506 0.091,-0.421L0.091,0.079C0.091,0.168 0.085,0.177 0.015,0.179L0.015,0.203L0.294,0.203L0.294,0.179C0.218,0.176 0.212,0.168 0.212,0.079L0.212,-0.06C0.258,-0.02 0.294,-0.006 0.351,-0.006C0.419,-0.006 0.482,-0.033 0.52,-0.08C0.559,-0.128 0.582,-0.206 0.582,-0.295C0.582,-0.462 0.506,-0.557 0.372,-0.557C0.304,-0.557 0.256,-0.534 0.21,-0.478L0.21,-0.555ZM0.208,-0.268C0.208,-0.428 0.258,-0.525 0.34,-0.525C0.411,-0.525 0.449,-0.441 0.449,-0.281C0.449,-0.116 0.409,-0.034 0.328,-0.034C0.29,-0.034 0.254,-0.06 0.236,-0.098C0.217,-0.14 0.208,-0.194 0.208,-0.268Z" style="fill:rgb(96,87,87);fill-rule:nonzero;"/>
                </g>
                <g transform="matrix(56.8733,0,0,60.3579,1238.27,606.382)">
                    <path d="M0.029,-0.02L0.309,-0.02L0.309,-0.044C0.236,-0.046 0.23,-0.053 0.23,-0.144L0.23,-0.574C0.23,-0.641 0.232,-0.705 0.236,-0.779L0.03,-0.768L0.03,-0.745C0.101,-0.745 0.108,-0.736 0.108,-0.648L0.108,-0.144C0.108,-0.053 0.102,-0.046 0.029,-0.044L0.029,-0.02Z" style="fill:rgb(96,87,87);fill-rule:nonzero;"/>
                </g>
                <g transform="matrix(56.8733,0,0,60.3579,1257.33,606.382)">
                    <path d="M0.334,-0.151L0.231,-0.421C0.219,-0.453 0.216,-0.464 0.216,-0.479C0.216,-0.506 0.233,-0.517 0.276,-0.518L0.276,-0.542L0.009,-0.542L0.009,-0.519C0.056,-0.515 0.065,-0.504 0.099,-0.424L0.274,-0.006L0.259,0.034C0.24,0.08 0.226,0.093 0.195,0.093C0.185,0.093 0.177,0.092 0.153,0.087C0.133,0.083 0.122,0.082 0.113,0.082C0.087,0.082 0.073,0.1 0.073,0.134C0.073,0.18 0.098,0.203 0.146,0.203C0.208,0.203 0.244,0.166 0.285,0.063L0.455,-0.369C0.5,-0.482 0.525,-0.511 0.581,-0.519L0.581,-0.542L0.363,-0.542L0.363,-0.519C0.419,-0.516 0.442,-0.498 0.442,-0.457C0.442,-0.438 0.438,-0.42 0.425,-0.387L0.334,-0.151Z" style="fill:rgb(96,87,87);fill-rule:nonzero;"/>
                </g>
                <g transform="matrix(56.8733,0,0,60.3579,1309.76,606.382)">
                    <path d="M0.249,-0.394L0.326,-0.394C0.434,-0.394 0.458,-0.374 0.47,-0.277L0.502,-0.277L0.502,-0.538L0.47,-0.538C0.46,-0.445 0.432,-0.423 0.326,-0.423L0.249,-0.423L0.249,-0.739L0.342,-0.739C0.48,-0.739 0.535,-0.693 0.559,-0.558L0.594,-0.561L0.579,-0.768L0.03,-0.768L0.03,-0.742C0.11,-0.741 0.12,-0.73 0.12,-0.638L0.12,-0.15C0.12,-0.058 0.112,-0.049 0.03,-0.046L0.03,-0.02L0.343,-0.02L0.343,-0.046C0.259,-0.048 0.249,-0.059 0.249,-0.15L0.249,-0.394Z" style="fill:rgb(96,87,87);fill-rule:nonzero;"/>
                </g>
                <g transform="matrix(56.8733,0,0,60.3579,1345.25,606.382)">
                    <path d="M0.043,-0.277C0.043,-0.2 0.068,-0.129 0.112,-0.08C0.154,-0.033 0.225,-0.004 0.3,-0.004C0.379,-0.004 0.452,-0.034 0.498,-0.085C0.539,-0.131 0.564,-0.205 0.564,-0.283C0.564,-0.449 0.462,-0.557 0.305,-0.557C0.229,-0.557 0.161,-0.531 0.118,-0.486C0.071,-0.436 0.043,-0.359 0.043,-0.277ZM0.178,-0.282C0.178,-0.369 0.188,-0.433 0.21,-0.476C0.227,-0.513 0.262,-0.534 0.303,-0.534C0.39,-0.534 0.43,-0.454 0.43,-0.279C0.43,-0.105 0.391,-0.027 0.304,-0.027C0.218,-0.027 0.178,-0.109 0.178,-0.282Z" style="fill:rgb(96,87,87);fill-rule:nonzero;"/>
                </g>
                <g transform="matrix(56.8733,0,0,60.3579,1379.72,606.382)">
                    <path d="M0.031,-0.542L0.031,-0.518C0.094,-0.518 0.103,-0.506 0.103,-0.421L0.103,-0.144C0.103,-0.055 0.096,-0.045 0.027,-0.044L0.027,-0.02L0.305,-0.02L0.305,-0.044C0.231,-0.047 0.225,-0.054 0.225,-0.144L0.225,-0.329C0.225,-0.376 0.233,-0.41 0.249,-0.44C0.266,-0.469 0.286,-0.486 0.305,-0.487L0.307,-0.487C0.323,-0.487 0.328,-0.48 0.336,-0.452C0.343,-0.429 0.356,-0.42 0.383,-0.42C0.425,-0.42 0.455,-0.445 0.455,-0.481C0.455,-0.524 0.419,-0.557 0.37,-0.557C0.313,-0.557 0.262,-0.518 0.222,-0.444L0.222,-0.474C0.222,-0.494 0.221,-0.517 0.219,-0.555L0.031,-0.542Z" style="fill:rgb(96,87,87);fill-rule:nonzero;"/>
                </g>
                <g transform="matrix(56.8733,0,0,60.3579,1424.53,606.382)">
                    <path d="M0.414,-0.742C0.497,-0.74 0.542,-0.726 0.577,-0.692C0.61,-0.661 0.63,-0.609 0.646,-0.512L0.682,-0.514L0.663,-0.768L0.034,-0.768L0.015,-0.514L0.051,-0.512C0.066,-0.601 0.083,-0.652 0.111,-0.684C0.146,-0.724 0.193,-0.74 0.282,-0.742L0.282,-0.15C0.282,-0.058 0.272,-0.048 0.179,-0.046L0.179,-0.02L0.518,-0.02L0.518,-0.046C0.424,-0.048 0.414,-0.058 0.414,-0.15L0.414,-0.742Z" style="fill:rgb(96,87,87);fill-rule:nonzero;"/>
                </g>
                <g transform="matrix(56.8733,0,0,60.3579,1464.23,606.382)">
                    <path d="M0.52,-0.302C0.518,-0.365 0.513,-0.395 0.502,-0.425C0.469,-0.511 0.397,-0.557 0.295,-0.557C0.143,-0.557 0.044,-0.447 0.044,-0.279C0.044,-0.112 0.146,-0.005 0.305,-0.005C0.408,-0.005 0.475,-0.047 0.525,-0.142L0.5,-0.158C0.463,-0.085 0.404,-0.044 0.335,-0.044C0.274,-0.044 0.228,-0.077 0.199,-0.143C0.181,-0.185 0.174,-0.228 0.173,-0.302L0.52,-0.302ZM0.174,-0.331C0.178,-0.383 0.184,-0.415 0.195,-0.446C0.216,-0.504 0.249,-0.534 0.292,-0.534C0.331,-0.534 0.359,-0.509 0.378,-0.456C0.389,-0.425 0.393,-0.394 0.395,-0.331L0.174,-0.331Z" style="fill:rgb(96,87,87);fill-rule:nonzero;"/>
                </g>
                <g transform="matrix(56.8733,0,0,60.3579,1496.08,606.382)">
                    <path d="M0.051,-0.013C0.084,-0.019 0.087,-0.019 0.102,-0.019C0.114,-0.019 0.126,-0.018 0.138,-0.016C0.197,-0.006 0.211,-0.004 0.24,-0.004C0.353,-0.004 0.42,-0.067 0.42,-0.171C0.42,-0.246 0.387,-0.285 0.285,-0.332C0.195,-0.373 0.195,-0.373 0.173,-0.39C0.151,-0.407 0.142,-0.425 0.142,-0.451C0.142,-0.501 0.177,-0.534 0.231,-0.534C0.303,-0.534 0.345,-0.48 0.352,-0.378L0.389,-0.378L0.398,-0.553C0.375,-0.545 0.364,-0.543 0.35,-0.543C0.339,-0.543 0.334,-0.544 0.306,-0.549C0.277,-0.554 0.251,-0.557 0.235,-0.557C0.122,-0.557 0.05,-0.495 0.05,-0.398C0.05,-0.362 0.061,-0.333 0.085,-0.308C0.109,-0.282 0.134,-0.266 0.193,-0.24C0.309,-0.186 0.335,-0.164 0.335,-0.115C0.335,-0.06 0.298,-0.028 0.237,-0.028C0.188,-0.028 0.153,-0.048 0.125,-0.091C0.109,-0.117 0.101,-0.144 0.095,-0.196L0.059,-0.196L0.051,-0.013Z" style="fill:rgb(96,87,87);fill-rule:nonzero;"/>
                </g>
                <g transform="matrix(56.8733,0,0,60.3579,1523.04,606.382)">
                    <path d="M0.219,-0.51L0.34,-0.51L0.34,-0.542L0.219,-0.542C0.219,-0.633 0.22,-0.664 0.222,-0.705L0.172,-0.7C0.163,-0.65 0.153,-0.621 0.135,-0.593C0.112,-0.557 0.084,-0.542 0.04,-0.54L0.04,-0.51L0.097,-0.51L0.097,-0.198C0.097,-0.109 0.1,-0.085 0.112,-0.06C0.131,-0.025 0.171,-0.005 0.225,-0.005C0.277,-0.005 0.321,-0.021 0.362,-0.055L0.348,-0.08C0.323,-0.06 0.299,-0.049 0.278,-0.049C0.257,-0.049 0.237,-0.064 0.229,-0.086C0.222,-0.106 0.219,-0.132 0.219,-0.176L0.219,-0.51Z" style="fill:rgb(96,87,87);fill-rule:nonzero;"/>
                </g>
                <g transform="matrix(56.8733,0,0,60.3579,1543.97,606.382)">
                    <path d="M0.031,-0.542L0.031,-0.518C0.101,-0.517 0.106,-0.51 0.106,-0.421L0.106,-0.144C0.106,-0.055 0.099,-0.045 0.028,-0.044L0.028,-0.02L0.306,-0.02L0.306,-0.044C0.235,-0.045 0.228,-0.055 0.228,-0.144L0.228,-0.361C0.228,-0.425 0.23,-0.495 0.234,-0.555L0.031,-0.542ZM0.096,-0.713C0.096,-0.673 0.128,-0.641 0.168,-0.641C0.208,-0.641 0.24,-0.673 0.24,-0.713C0.24,-0.753 0.208,-0.785 0.168,-0.785C0.128,-0.785 0.096,-0.753 0.096,-0.713Z" style="fill:rgb(96,87,87);fill-rule:nonzero;"/>
                </g>
                <g transform="matrix(56.8733,0,0,60.3579,1562.91,606.382)">
                    <path d="M0.225,-0.555L0.03,-0.542L0.03,-0.518C0.096,-0.517 0.104,-0.506 0.104,-0.421L0.104,-0.144C0.104,-0.055 0.097,-0.045 0.028,-0.044L0.028,-0.02L0.301,-0.02L0.301,-0.044C0.233,-0.045 0.226,-0.054 0.226,-0.144L0.226,-0.344C0.226,-0.377 0.237,-0.418 0.253,-0.447C0.278,-0.49 0.314,-0.513 0.356,-0.513C0.418,-0.513 0.444,-0.468 0.444,-0.36L0.444,-0.144C0.444,-0.056 0.436,-0.045 0.369,-0.044L0.369,-0.02L0.641,-0.02L0.641,-0.044C0.572,-0.045 0.565,-0.055 0.565,-0.144L0.565,-0.366C0.565,-0.426 0.558,-0.459 0.54,-0.489C0.514,-0.535 0.469,-0.557 0.404,-0.557C0.324,-0.557 0.269,-0.526 0.226,-0.456L0.225,-0.555Z" style="fill:rgb(96,87,87);fill-rule:nonzero;"/>
                </g>
                <g transform="matrix(56.8733,0,0,60.3579,1600.61,606.382)">
                    <path d="M0.274,-0.101C0.165,-0.101 0.141,-0.109 0.141,-0.144C0.141,-0.166 0.153,-0.18 0.187,-0.198C0.219,-0.19 0.247,-0.187 0.276,-0.187C0.335,-0.187 0.389,-0.203 0.427,-0.233C0.465,-0.263 0.487,-0.313 0.487,-0.369C0.487,-0.424 0.47,-0.462 0.428,-0.503L0.526,-0.503L0.526,-0.547C0.456,-0.544 0.421,-0.543 0.419,-0.543C0.394,-0.543 0.382,-0.544 0.35,-0.549C0.314,-0.555 0.294,-0.557 0.271,-0.557C0.14,-0.557 0.055,-0.481 0.055,-0.364C0.055,-0.317 0.07,-0.275 0.096,-0.25C0.108,-0.238 0.12,-0.229 0.153,-0.211L0.102,-0.179C0.061,-0.153 0.051,-0.138 0.051,-0.108C0.051,-0.083 0.061,-0.06 0.078,-0.042C0.089,-0.03 0.099,-0.024 0.123,-0.013C0.052,0.027 0.042,0.039 0.042,0.081C0.042,0.159 0.124,0.202 0.27,0.202C0.351,0.202 0.418,0.187 0.466,0.158C0.51,0.131 0.537,0.081 0.537,0.025C0.537,-0.025 0.515,-0.062 0.477,-0.08C0.439,-0.096 0.406,-0.101 0.319,-0.101L0.274,-0.101ZM0.179,-0.377C0.179,-0.48 0.21,-0.534 0.271,-0.534C0.332,-0.534 0.361,-0.481 0.361,-0.371C0.361,-0.263 0.332,-0.21 0.271,-0.21C0.211,-0.21 0.179,-0.269 0.179,-0.377ZM0.29,-0.004C0.403,-0.004 0.447,0.017 0.447,0.072C0.447,0.138 0.387,0.177 0.289,0.177C0.186,0.177 0.135,0.137 0.135,0.058C0.135,0.022 0.145,0.002 0.167,-0.003L0.29,-0.004Z" style="fill:rgb(96,87,87);fill-rule:nonzero;"/>
                </g>
            </g>
            <g transform="matrix(1,0,0,1,-23.1134,316.191)">
                <g transform="matrix(0.954218,0,0,0.933415,45.5514,48.0099)">
                    <path d="M687.569,802.544C687.569,817.54 699.479,829.715 714.148,829.715L958.322,829.715" style="fill-opacity:0;stroke:rgb(152,152,152);stroke-width:8.48px;"/>
                </g>
                <g transform="matrix(-0.954218,0,0,0.933415,1934.45,48.0099)">
                    <path d="M687.569,802.544C687.569,817.54 699.479,829.715 714.148,829.715L958.322,829.715" style="fill-opacity:0;stroke:rgb(152,152,152);stroke-width:8.48px;"/>
                </g>
                <g transform="matrix(1,0,0,1,-3.89314,8.39447)">
                    <path d="M993.893,801.267L1011.67,813.7L993.893,855.769L976.117,813.7L993.893,801.267Z" style="fill-opacity:0;"/>
                    <path d="M993.893,801.267L1011.67,813.7L993.893,855.769L976.117,813.7L993.893,801.267ZM985.016,816.262L993.893,837.271L1002.77,816.262L993.893,810.053L985.016,816.262Z" style="fill:rgb(152,152,152);"/>
                </g>
                <g transform="matrix(1.22784,0,0,1,-256.852,0)">
                    <path d="M1030.15,842.158L1101.01,842.158" style="fill:none;stroke:rgb(152,152,152);stroke-width:5.36px;stroke-linecap:square;stroke-miterlimit:0;"/>
                </g>
                <g transform="matrix(1,0,0,1,-149.01,0)">
                    <path d="M1034,842.158L1121.01,842.158" style="fill:none;stroke:rgb(152,152,152);stroke-width:6px;stroke-linecap:square;stroke-miterlimit:0;"/>
                </g>
                <g transform="matrix(1,0,0,1,-4.29666,-2.35681)">
                    <circle cx="994.314" cy="876.52" r="5.55" style="fill-opacity:0;"/>
                    <path d="M994.314,870.97C997.378,870.97 999.864,873.457 999.864,876.52C999.864,879.583 997.378,882.07 994.314,882.07C991.251,882.07 988.764,879.583 988.764,876.52C988.764,873.457 991.251,870.97 994.314,870.97ZM994.314,878.17C993.866,878.175 993.481,877.942 993.183,877.651C992.895,877.37 992.772,876.955 992.767,876.52C992.762,876.099 992.983,875.74 993.255,875.461C993.519,875.191 993.908,875.079 994.314,875.074C994.707,875.07 995.041,875.279 995.301,875.533C995.553,875.778 995.654,876.142 995.658,876.52C995.662,876.884 995.465,877.193 995.229,877.435C995.002,877.667 994.665,877.758 994.314,877.762L994.314,878.17Z" style="fill:rgb(152,152,152);"/>
                </g>
            </g>
        </g>
    </g>
</svg>
